<svg width="490" height="495" viewBox="0 0 490 495" fill="none" xmlns="http://www.w3.org/2000/svg">
<path d="M232.217 448C236.185 448 239.684 448.939 242.713 450.816C245.785 452.651 248.174 455.339 249.881 458.88C251.63 462.378 252.505 466.56 252.505 471.424C252.505 476.288 251.63 480.491 249.881 484.032C248.174 487.531 245.785 490.219 242.713 492.097C239.684 493.931 236.185 494.849 232.217 494.849C228.249 494.849 224.729 493.931 221.657 492.097C218.628 490.219 216.239 487.531 214.489 484.032C212.783 480.491 211.93 476.288 211.93 471.424C211.93 466.56 212.783 462.378 214.489 458.88C216.239 455.339 218.628 452.651 221.657 450.816C224.729 448.939 228.249 448 232.217 448ZM276.864 493.824H261.761V460.416H254.081V449.024H276.864V493.824ZM303.614 490.646C298.635 491.774 293.598 492.753 288.511 493.579V460.416H280.831V449.024H303.614V490.646ZM206.427 493.358C201.339 492.504 196.302 491.497 191.323 490.34V460.416H183.644V449.024H206.427V493.358ZM329.404 448C333.372 448 336.871 448.939 339.9 450.816C342.972 452.651 345.362 455.339 347.068 458.88C348.818 462.378 349.692 466.56 349.692 471.424C349.692 472.814 349.617 474.15 349.475 475.432C338.139 480.464 326.359 484.677 314.211 487.998C313.255 486.818 312.409 485.497 311.677 484.032C309.97 480.491 309.117 476.288 309.117 471.424C309.117 466.56 309.97 462.378 311.677 458.88C313.426 455.339 315.816 452.651 318.845 450.816C321.917 448.939 325.436 448 329.404 448ZM161.779 448C165.747 448 169.246 448.939 172.275 450.816C175.347 452.651 177.737 455.339 179.443 458.88C181.193 462.378 182.067 466.56 182.067 471.424C182.067 476.288 181.193 480.491 179.443 484.032C178.961 485.021 178.421 485.943 177.83 486.802C173.077 485.411 168.382 483.884 163.75 482.224C165.849 480.946 166.899 477.346 166.899 471.424C166.899 463.872 165.193 460.097 161.779 460.097C158.366 460.097 156.66 463.872 156.66 471.424C156.66 475.315 157.114 478.204 158.021 480.09C152.422 477.925 146.921 475.564 141.525 473.017C141.504 472.494 141.492 471.963 141.492 471.424C141.492 466.56 142.345 462.378 144.052 458.88C145.801 455.339 148.191 452.651 151.22 450.816C154.292 448.939 157.811 448 161.779 448ZM232.217 460.097C228.804 460.097 227.098 463.872 227.098 471.424C227.098 478.975 228.804 482.752 232.217 482.752C235.63 482.752 237.337 478.976 237.337 471.424C237.337 463.872 235.63 460.097 232.217 460.097ZM329.404 460.097C325.991 460.097 324.285 463.872 324.285 471.424C324.285 478.975 325.991 482.752 329.404 482.752C332.818 482.752 334.524 478.976 334.524 471.424C334.524 463.872 332.818 460.097 329.404 460.097ZM373.717 448C377.685 448 381.184 448.939 384.213 450.816C385.665 451.684 386.963 452.744 388.11 453.993C384.333 456.55 380.482 459.007 376.562 461.359C375.803 460.519 374.856 460.097 373.717 460.097C371.319 460.097 369.765 461.961 369.052 465.688C363.971 468.502 358.781 471.143 353.491 473.604C353.451 472.893 353.43 472.166 353.43 471.424C353.43 466.56 354.283 462.378 355.989 458.88C357.739 455.339 360.128 452.651 363.157 450.816C366.229 448.939 369.749 448 373.717 448ZM117.467 448C121.435 448 124.934 448.939 127.963 450.816C131.035 452.651 133.424 455.339 135.131 458.88C136.853 462.324 137.725 466.429 137.752 471.195C131.977 468.349 126.327 465.286 120.814 462.018C120.021 460.789 118.963 460.152 117.638 460.102C113.416 457.513 109.276 454.802 105.225 451.975C105.762 451.557 106.322 451.171 106.907 450.816C109.979 448.939 113.499 448 117.467 448ZM91.3418 384C95.3097 384 98.8086 384.939 101.838 386.816C104.91 388.651 107.299 391.339 109.006 394.88C110.755 398.378 111.63 402.56 111.63 407.424C111.63 412.288 110.755 416.491 109.006 420.032C107.299 423.531 104.91 426.219 101.838 428.097C98.8087 429.931 95.3096 430.849 91.3418 430.849C87.3741 430.849 83.8541 429.931 80.7822 428.097C77.7529 426.219 75.3636 423.531 73.6143 420.032C71.9076 416.491 71.0547 412.288 71.0547 407.424C71.0547 402.56 71.9076 398.378 73.6143 394.88C75.3636 391.339 77.753 388.651 80.7822 386.816C83.8541 384.939 87.374 384 91.3418 384ZM161.779 384C165.747 384 169.246 384.939 172.275 386.816C175.347 388.651 177.737 391.339 179.443 394.88C181.193 398.378 182.067 402.56 182.067 407.424C182.067 412.288 181.193 416.491 179.443 420.032C177.737 423.531 175.347 426.219 172.275 428.097C169.246 429.931 165.747 430.849 161.779 430.849C157.812 430.849 154.292 429.931 151.22 428.097C148.19 426.219 145.801 423.531 144.052 420.032C142.345 416.491 141.492 412.288 141.492 407.424C141.492 402.56 142.345 398.378 144.052 394.88C145.801 391.339 148.191 388.651 151.22 386.816C154.292 384.939 157.811 384 161.779 384ZM276.631 394.88C278.38 398.378 279.255 402.56 279.255 407.424C279.255 412.288 278.38 416.491 276.631 420.032C274.924 423.531 272.535 426.219 269.463 428.097C266.434 429.931 262.935 430.849 258.967 430.849C254.999 430.849 251.479 429.931 248.407 428.097C245.378 426.219 242.989 423.531 241.239 420.032C239.533 416.491 238.68 412.288 238.68 407.424C238.68 403.346 239.281 399.749 240.48 396.631C243.016 396.758 245.568 396.824 248.136 396.824C251.151 396.824 254.145 396.732 257.116 396.557C254.938 397.77 253.848 401.391 253.848 407.424C253.848 414.975 255.554 418.752 258.967 418.752C262.38 418.752 264.087 414.976 264.087 407.424C264.087 400.956 262.835 397.261 260.331 396.332C265.734 395.897 271.055 395.179 276.281 394.187C276.401 394.414 276.518 394.645 276.631 394.88ZM329.404 384C333.372 384 336.871 384.939 339.9 386.816C342.972 388.651 345.362 391.339 347.068 394.88C348.818 398.378 349.692 402.56 349.692 407.424C349.692 412.288 348.818 416.491 347.068 420.032C345.362 423.531 342.972 426.219 339.9 428.097C336.871 429.931 333.372 430.849 329.404 430.849C325.437 430.849 321.917 429.931 318.845 428.097C315.815 426.219 313.426 423.531 311.677 420.032C309.97 416.491 309.117 412.288 309.117 407.424C309.117 402.56 309.97 398.378 311.677 394.88C313.426 391.339 315.816 388.651 318.845 386.816C321.917 384.939 325.436 384 329.404 384ZM373.717 384C377.685 384 381.184 384.939 384.213 386.816C387.285 388.651 389.674 391.339 391.381 394.88C393.13 398.378 394.005 402.56 394.005 407.424C394.005 412.288 393.13 416.491 391.381 420.032C389.674 423.531 387.285 426.219 384.213 428.097C381.184 429.931 377.685 430.849 373.717 430.849C369.749 430.849 366.229 429.931 363.157 428.097C360.128 426.219 357.739 423.531 355.989 420.032C354.283 416.491 353.43 412.288 353.43 407.424C353.43 402.56 354.283 398.378 355.989 394.88C357.739 391.339 360.128 388.651 363.157 386.816C366.229 384.939 369.749 384 373.717 384ZM135.989 429.824H120.886V396.416H113.206V385.024H135.989V429.824ZM189.722 385.024C195.135 387.315 200.711 389.295 206.427 390.946V429.824H191.323V396.416H183.644V385.024H189.722ZM210.394 392.034C217.782 393.949 225.392 395.314 233.177 396.085V429.824H218.073V396.416H210.394V392.034ZM303.614 429.824H288.511V396.416H280.831V393.247C288.674 391.503 296.286 389.146 303.614 386.228V429.824ZM418.364 429.824H403.261V396.416H395.581V385.024H418.364V429.824ZM91.3418 396.097C87.9288 396.097 86.2227 399.872 86.2227 407.424C86.2227 414.975 87.9288 418.752 91.3418 418.752C94.7551 418.752 96.4619 414.976 96.4619 407.424C96.4619 399.872 94.7551 396.097 91.3418 396.097ZM161.779 396.097C158.366 396.097 156.66 399.872 156.66 407.424C156.66 414.975 158.366 418.752 161.779 418.752C165.193 418.752 166.899 414.976 166.899 407.424C166.899 399.872 165.193 396.097 161.779 396.097ZM329.404 396.097C325.991 396.097 324.285 399.872 324.285 407.424C324.285 414.975 325.991 418.752 329.404 418.752C332.818 418.752 334.524 414.976 334.524 407.424C334.524 399.872 332.818 396.097 329.404 396.097ZM373.717 396.097C370.304 396.097 368.598 399.872 368.598 407.424C368.598 414.975 370.304 418.752 373.717 418.752C377.13 418.752 378.837 414.976 378.837 407.424C378.837 399.872 377.13 396.097 373.717 396.097ZM445.114 400.786C440.349 406.874 435.309 412.735 430.011 418.351V396.416H422.331V385.024H445.114V400.786ZM47.0293 384C50.9972 384 54.4961 384.939 57.5254 386.816C60.5973 388.651 62.9867 391.339 64.6934 394.88C66.4426 398.378 67.3173 402.56 67.3174 407.424C67.3174 411.271 66.7675 414.705 65.6729 417.725C60.7669 412.489 56.083 407.043 51.6377 401.399C50.9623 398.162 49.6181 396.407 47.6025 396.135C44.9344 392.557 42.3593 388.906 39.8818 385.185C42.0765 384.396 44.4585 384 47.0293 384ZM73.7793 320C77.7472 320 81.2461 320.939 84.2754 322.816C87.3473 324.651 89.7367 327.339 91.4434 330.88C93.1926 334.378 94.0673 338.56 94.0674 343.424C94.0674 348.288 93.1927 352.491 91.4434 356.032C89.7367 359.531 87.3473 362.219 84.2754 364.097C81.2462 365.931 77.7471 366.849 73.7793 366.849C69.8116 366.849 66.2916 365.931 63.2197 364.097C60.1904 362.219 57.8011 359.531 56.0518 356.032C54.3451 352.491 53.4922 348.288 53.4922 343.424C53.4922 338.56 54.3451 334.378 56.0518 330.88C57.8011 327.339 60.1905 324.651 63.2197 322.816C66.2916 320.939 69.8115 320 73.7793 320ZM125.51 333.229C129.875 339.413 134.696 345.252 139.925 350.697C140.71 353.285 142.054 354.632 143.959 354.742C147.371 358.037 150.938 361.171 154.649 364.133C151.635 365.942 148.157 366.849 144.217 366.849C140.249 366.849 136.729 365.931 133.657 364.097C130.628 362.219 128.239 359.531 126.489 356.032C124.783 352.491 123.93 348.288 123.93 343.424C123.93 339.605 124.457 336.207 125.51 333.229ZM375.029 333.824C375.97 336.657 376.442 339.857 376.442 343.424C376.442 348.288 375.568 352.491 373.818 356.032C372.112 359.531 369.722 362.219 366.65 364.097C363.621 365.931 360.122 366.849 356.154 366.849C352.187 366.849 348.667 365.931 345.595 364.097C344.865 363.644 344.173 363.143 343.518 362.597C346.96 359.757 350.272 356.766 353.446 353.636C354.181 354.379 355.083 354.752 356.154 354.752C359.263 354.752 360.955 351.621 361.232 345.358C364.45 341.668 367.49 337.819 370.339 333.824H375.029ZM419.342 333.824C420.283 336.657 420.755 339.857 420.755 343.424C420.755 348.288 419.88 352.491 418.131 356.032C416.424 359.531 414.035 362.219 410.963 364.097C407.934 365.931 404.435 366.849 400.467 366.849C396.499 366.849 392.979 365.931 389.907 364.097C386.878 362.219 384.489 359.531 382.739 356.032C381.033 352.491 380.18 348.288 380.18 343.424C380.18 339.857 380.641 336.657 381.559 333.824H397.252C395.984 335.621 395.348 338.82 395.348 343.424C395.348 350.975 397.054 354.752 400.467 354.752C403.88 354.752 405.587 350.976 405.587 343.424C405.587 338.82 404.951 335.621 403.683 333.824H419.342ZM482.58 333.824C478.369 345.168 473.358 356.122 467.616 366.62C464.964 366.246 462.54 365.407 460.345 364.097C457.315 362.219 454.926 359.531 453.177 356.032C451.47 352.491 450.617 348.288 450.617 343.424C450.617 339.857 451.078 336.657 451.996 333.824H467.689C466.421 335.621 465.785 338.82 465.785 343.424C465.785 350.975 467.491 354.752 470.904 354.752C474.318 354.752 476.024 350.976 476.024 343.424C476.024 338.82 475.389 335.621 474.12 333.824H482.58ZM47.9893 365.824H32.8857V332.416H25.2061V321.024H47.9893V365.824ZM118.427 322.204V365.824H103.323V332.416H95.6436V321.024H117.746C117.971 321.419 118.198 321.812 118.427 322.204ZM445.114 365.824H430.011V333.824H445.114V365.824ZM73.7793 332.097C70.3663 332.097 68.6602 335.872 68.6602 343.424C68.6602 350.975 70.3663 354.752 73.7793 354.752C77.1926 354.752 78.8994 350.976 78.8994 343.424C78.8994 335.872 77.1926 332.097 73.7793 332.097ZM21.2393 351.931C16.6158 341.967 12.6282 331.647 9.33105 321.024H21.2393V351.931ZM20.2793 256C24.2472 256 27.7461 256.939 30.7754 258.816C33.8473 260.651 36.2367 263.339 37.9434 266.88C39.6926 270.378 40.5673 274.56 40.5674 279.424C40.5674 284.288 39.6927 288.491 37.9434 292.032C36.2367 295.531 33.8473 298.219 30.7754 300.097C27.7462 301.931 24.2471 302.849 20.2793 302.849C16.3116 302.849 12.7916 301.931 9.71973 300.097C6.6904 298.219 4.30109 295.531 2.55176 292.032C2.34894 291.611 2.15919 291.181 1.98047 290.741C1.21861 286.442 0.567417 282.105 0.0283203 277.732C0.205805 273.584 1.0463 269.966 2.55176 266.88C4.30106 263.339 6.69052 260.651 9.71973 258.816C12.7916 256.939 16.3115 256 20.2793 256ZM90.7168 256C93.5543 256 96.1513 256.482 98.5088 257.442C99.4355 270.693 102.083 283.469 106.229 295.549C104.831 297.39 103.16 298.907 101.213 300.097C98.1837 301.931 94.6846 302.849 90.7168 302.849C86.7491 302.849 83.2291 301.931 80.1572 300.097C77.1279 298.219 74.7386 295.531 72.9893 292.032C71.2826 288.491 70.4297 284.288 70.4297 279.424C70.4297 274.56 71.2826 270.378 72.9893 266.88C74.7386 263.339 77.128 260.651 80.1572 258.816C83.2291 256.939 86.749 256 90.7168 256ZM64.9268 301.824H49.8232V268.416H42.1436V257.024H64.9268V301.824ZM20.2793 268.097C16.8663 268.097 15.1602 271.872 15.1602 279.424C15.1602 286.975 16.8663 290.752 20.2793 290.752C23.6926 290.752 25.3994 286.976 25.3994 279.424C25.3994 271.872 23.6926 268.097 20.2793 268.097ZM90.7168 268.097C87.3038 268.097 85.5977 271.872 85.5977 279.424C85.5977 286.975 87.3038 290.752 90.7168 290.752C94.1301 290.752 95.8369 286.976 95.8369 279.424C95.8369 271.872 94.1301 268.097 90.7168 268.097ZM20.2793 192C24.2472 192 27.7461 192.939 30.7754 194.816C33.8473 196.651 36.2367 199.339 37.9434 202.88C39.6926 206.378 40.5673 210.56 40.5674 215.424C40.5674 220.288 39.6927 224.491 37.9434 228.032C36.2367 231.531 33.8473 234.219 30.7754 236.097C27.7462 237.931 24.2471 238.849 20.2793 238.849C16.3116 238.849 12.7916 237.931 9.71973 236.097C6.6904 234.219 4.30109 231.531 2.55176 228.032C0.930263 224.668 0.0809212 220.706 0 216.147C0.45034 212.467 0.980341 208.811 1.58887 205.182C1.87256 204.384 2.1924 203.617 2.55176 202.88C4.30106 199.339 6.69052 196.651 9.71973 194.816C12.7916 192.939 16.3115 192 20.2793 192ZM64.5918 192C68.5597 192 72.0586 192.939 75.0879 194.816C78.1598 196.651 80.5492 199.339 82.2559 202.88C84.0051 206.378 84.8798 210.56 84.8799 215.424C84.8799 220.288 84.0052 224.491 82.2559 228.032C80.5492 231.531 78.1598 234.219 75.0879 236.097C72.0587 237.931 68.5596 238.849 64.5918 238.849C60.6241 238.849 57.1041 237.931 54.0322 236.097C51.0029 234.219 48.6136 231.531 46.8643 228.032C45.1576 224.491 44.3047 220.288 44.3047 215.424C44.3047 210.56 45.1576 206.378 46.8643 202.88C48.6136 199.339 51.003 196.651 54.0322 194.816C57.1041 192.939 60.624 192 64.5918 192ZM108.075 193.024C102.679 207.063 99.3338 222.118 98.4043 237.824H94.1357V204.416H86.4561V193.024H108.075ZM20.2793 204.097C16.8663 204.097 15.1602 207.872 15.1602 215.424C15.1602 222.975 16.8663 226.752 20.2793 226.752C23.6926 226.752 25.3994 222.976 25.3994 215.424C25.3994 207.872 23.6926 204.097 20.2793 204.097ZM64.5918 204.097C61.1788 204.097 59.4727 207.872 59.4727 215.424C59.4727 222.975 61.1788 226.752 64.5918 226.752C68.0051 226.752 69.7119 222.976 69.7119 215.424C69.7119 207.872 68.0051 204.097 64.5918 204.097ZM27.4736 129.212C28.6297 129.636 29.7309 130.169 30.7754 130.816C33.8473 132.651 36.2367 135.339 37.9434 138.88C39.6926 142.378 40.5673 146.56 40.5674 151.424C40.5674 156.288 39.6927 160.491 37.9434 164.032C36.2367 167.531 33.8473 170.219 30.7754 172.097C27.7462 173.931 24.2471 174.849 20.2793 174.849C16.3116 174.849 12.7916 173.931 9.71973 172.097C9.65674 172.058 9.59563 172.015 9.5332 171.976C11.2866 166.381 13.231 160.87 15.3594 155.452C15.8998 160.319 17.5395 162.752 20.2793 162.752C23.6926 162.752 25.3994 158.976 25.3994 151.424C25.3994 145.135 24.215 141.467 21.8477 140.415C23.6317 136.628 25.5079 132.892 27.4736 129.212ZM64.5918 128C68.5597 128 72.0586 128.939 75.0879 130.816C78.1598 132.651 80.5492 135.339 82.2559 138.88C84.0051 142.378 84.8798 146.56 84.8799 151.424C84.8799 156.288 84.0052 160.491 82.2559 164.032C80.5492 167.531 78.1598 170.219 75.0879 172.097C72.0587 173.931 68.5596 174.849 64.5918 174.849C60.6241 174.849 57.1041 173.931 54.0322 172.097C51.0029 170.219 48.6136 167.531 46.8643 164.032C45.1576 160.491 44.3047 156.288 44.3047 151.424C44.3047 146.56 45.1576 142.378 46.8643 138.88C48.6136 135.339 51.003 132.651 54.0322 130.816C57.1041 128.939 60.624 128 64.5918 128ZM109.239 173.824H94.1357V140.416H86.4561V129.024H109.239V173.824ZM135.989 147.207C130.414 153.479 125.358 160.222 120.886 167.369V140.416H113.206V129.024H135.989V147.207ZM64.5918 140.097C61.1788 140.097 59.4727 143.872 59.4727 151.424C59.4727 158.975 61.1788 162.752 64.5918 162.752C68.0051 162.752 69.7119 158.976 69.7119 151.424C69.7119 143.872 68.0051 140.097 64.5918 140.097ZM374.052 158.824H369.62C366.307 154.258 362.744 149.885 358.948 145.728V140.416H353.856C353.004 139.569 352.141 138.733 351.269 137.906V129.024H374.052V158.824ZM399.842 128C403.81 128 407.309 128.939 410.338 130.816C413.41 132.651 415.799 135.339 417.506 138.88C419.255 142.378 420.13 146.56 420.13 151.424C420.13 154.089 419.865 156.556 419.34 158.824H404.096C404.673 156.996 404.962 154.529 404.962 151.424C404.962 143.872 403.255 140.097 399.842 140.097C396.429 140.097 394.723 143.872 394.723 151.424C394.723 154.529 395.012 156.996 395.589 158.824H380.325C379.813 156.556 379.555 154.089 379.555 151.424C379.555 146.56 380.408 142.378 382.114 138.88C383.864 135.339 386.253 132.651 389.282 130.816C392.354 128.939 395.874 128 399.842 128ZM444.154 128C448.122 128 451.621 128.939 454.65 130.816C457.722 132.651 460.112 135.339 461.818 138.88C463.568 142.378 464.442 146.56 464.442 151.424C464.442 154.089 464.178 156.556 463.652 158.824H448.408C448.985 156.996 449.274 154.529 449.274 151.424C449.274 143.872 447.568 140.097 444.154 140.097C440.741 140.097 439.035 143.872 439.035 151.424C439.035 154.529 439.324 156.996 439.901 158.824H424.638C424.125 156.556 423.867 154.089 423.867 151.424C423.867 146.56 424.72 142.378 426.427 138.88C428.176 135.339 430.566 132.651 433.595 130.816C436.667 128.939 440.186 128 444.154 128ZM468.698 129.024C473.824 138.602 478.343 148.552 482.207 158.824H473.698V140.416H466.019V129.024H468.698ZM155.382 128.932C151.464 132.018 147.705 135.298 144.116 138.753C145.86 135.275 148.227 132.629 151.22 130.816C152.526 130.018 153.914 129.39 155.382 128.932ZM75.0879 66.8164C78.1598 68.651 80.5492 71.3388 82.2559 74.8799C84.0051 78.3785 84.8798 82.56 84.8799 87.4238C84.8799 92.2878 84.0052 96.4909 82.2559 100.032C80.5492 103.531 78.1598 106.219 75.0879 108.097C72.0587 109.931 68.5596 110.849 64.5918 110.849C60.6241 110.849 57.1041 109.931 54.0322 108.097C51.0029 106.219 48.6136 103.531 46.8643 100.032C46.7149 99.7223 46.5748 99.406 46.4385 99.0859C50.6574 93.3359 55.1167 87.7733 59.8008 82.4121C59.5818 83.8404 59.4727 85.511 59.4727 87.4238C59.4727 94.9755 61.1788 98.7516 64.5918 98.752C68.0051 98.752 69.7119 94.9758 69.7119 87.4238C69.7119 80.5183 68.2848 76.7716 65.4307 76.1807C68.4747 72.9229 71.6048 69.7465 74.8174 66.6553C74.9075 66.709 74.9986 66.7611 75.0879 66.8164ZM135.029 64C138.997 64 142.496 64.9391 145.525 66.8164C148.597 68.651 150.987 71.3388 152.693 74.8799C154.443 78.3785 155.317 82.56 155.317 87.4238C155.317 92.2878 154.443 96.4909 152.693 100.032C150.987 103.531 148.597 106.219 145.525 108.097C142.496 109.931 138.997 110.849 135.029 110.849C131.062 110.849 127.542 109.931 124.47 108.097C121.44 106.219 119.051 103.531 117.302 100.032C115.595 96.4909 114.742 92.2878 114.742 87.4238C114.742 82.56 115.595 78.3785 117.302 74.8799C119.051 71.3387 121.441 68.651 124.47 66.8164C127.542 64.9391 131.061 64.0001 135.029 64ZM346.967 64C350.935 64 354.434 64.9391 357.463 66.8164C360.535 68.651 362.924 71.3388 364.631 74.8799C366.38 78.3785 367.255 82.56 367.255 87.4238C367.255 92.2878 366.38 96.4909 364.631 100.032C362.924 103.531 360.535 106.219 357.463 108.097C354.434 109.931 350.935 110.849 346.967 110.849C342.999 110.849 339.479 109.931 336.407 108.097C333.378 106.219 330.989 103.531 329.239 100.032C327.533 96.4909 326.68 92.2878 326.68 87.4238C326.68 82.56 327.533 78.3785 329.239 74.8799C330.989 71.3387 333.378 68.651 336.407 66.8164C339.479 64.9391 342.999 64.0001 346.967 64ZM417.404 64C417.837 64 418.265 64.0128 418.688 64.0352C425.302 70.2091 431.58 76.7377 437.493 83.5908C437.624 84.8177 437.692 86.0951 437.692 87.4238C437.692 92.2878 436.818 96.4909 435.068 100.032C433.362 103.531 430.972 106.219 427.9 108.097C424.871 109.931 421.372 110.849 417.404 110.849C413.437 110.849 409.917 109.931 406.845 108.097C403.815 106.219 401.426 103.531 399.677 100.032C397.97 96.4909 397.117 92.2878 397.117 87.4238C397.117 82.56 397.97 78.3785 399.677 74.8799C401.426 71.3387 403.816 68.651 406.845 66.8164C409.917 64.9391 413.436 64.0001 417.404 64ZM302.654 64C306.622 64 310.121 64.9391 313.15 66.8164C316.222 68.651 318.612 71.3388 320.318 74.8799C322.068 78.3785 322.942 82.56 322.942 87.4238C322.942 92.2878 322.068 96.4909 320.318 100.032C318.612 103.531 316.222 106.219 313.15 108.097C311.953 108.822 310.681 109.4 309.337 109.839C301.794 106.464 293.922 103.692 285.781 101.588C285.482 101.088 285.196 100.57 284.927 100.032C283.22 96.4909 282.367 92.2878 282.367 87.4238C282.367 82.56 283.22 78.3785 284.927 74.8799C286.676 71.3387 289.066 68.651 292.095 66.8164C295.167 64.9391 298.686 64.0001 302.654 64ZM109.239 109.824H94.1357V76.416H86.4561V65.0244H109.239V109.824ZM179.677 109.824H164.573V76.416H156.894V65.0244H179.677V109.824ZM391.614 109.824H376.511V76.416H368.831V65.0244H391.614V109.824ZM446.948 95.2324C450.563 99.9662 454.012 104.833 457.288 109.824H446.948V95.2324ZM206.427 102.701C201.273 104.19 196.233 105.946 191.323 107.957V76.416H183.644V65.0244H206.427V102.701ZM232.217 64C236.185 64 239.684 64.9391 242.713 66.8164C245.785 68.651 248.174 71.3388 249.881 74.8799C251.63 78.3785 252.505 82.56 252.505 87.4238C252.505 90.9076 252.053 94.0512 251.155 96.8564C250.151 96.8366 249.145 96.8242 248.136 96.8242C243.764 96.8242 239.436 97.0124 235.159 97.3789C236.61 95.6654 237.337 92.3476 237.337 87.4238C237.337 79.8721 235.63 76.0967 232.217 76.0967C228.804 76.097 227.098 79.8724 227.098 87.4238C227.098 92.9462 228.012 96.4475 229.837 97.9316C224.727 98.5531 219.697 99.4308 214.76 100.553C214.669 100.381 214.577 100.208 214.489 100.032C212.783 96.4909 211.93 92.2878 211.93 87.4238C211.93 82.56 212.783 78.3785 214.489 74.8799C216.239 71.3387 218.628 68.651 221.657 66.8164C224.729 64.9391 228.249 64.0001 232.217 64ZM276.864 99.5732C271.912 98.6128 266.874 97.8949 261.761 97.4346V76.416H254.081V65.0244H276.864V99.5732ZM135.029 76.0967C131.616 76.097 129.91 79.8724 129.91 87.4238C129.91 94.9755 131.616 98.7516 135.029 98.752C138.443 98.752 140.149 94.9758 140.149 87.4238C140.149 79.8721 138.443 76.0967 135.029 76.0967ZM302.654 76.0967C299.241 76.097 297.535 79.8724 297.535 87.4238C297.535 94.9755 299.241 98.7516 302.654 98.752C306.068 98.752 307.774 94.9758 307.774 87.4238C307.774 79.8721 306.068 76.0967 302.654 76.0967ZM346.967 76.0967C343.554 76.097 341.848 79.8724 341.848 87.4238C341.848 94.9755 343.554 98.7516 346.967 98.752C350.38 98.752 352.087 94.9758 352.087 87.4238C352.087 79.8721 350.38 76.0967 346.967 76.0967ZM417.404 76.0967C413.991 76.097 412.285 79.8724 412.285 87.4238C412.285 94.9755 413.991 98.7516 417.404 98.752C420.818 98.752 422.524 94.9758 422.524 87.4238C422.524 79.8721 420.818 76.0967 417.404 76.0967ZM154.274 15.042C154.969 17.5649 155.317 20.3587 155.317 23.4238C155.317 28.2878 154.443 32.4909 152.693 36.0322C150.987 39.5308 148.597 42.2194 145.525 44.0967C142.496 45.9312 138.997 46.8486 135.029 46.8486C131.062 46.8486 127.542 45.9312 124.47 44.0967C121.44 42.2193 119.051 39.5309 117.302 36.0322C117.021 35.4492 116.765 34.8474 116.53 34.2285C120.936 31.4953 125.433 28.8949 130.016 26.4336C130.434 31.979 132.105 34.7517 135.029 34.752C138.443 34.752 140.149 30.9758 140.149 23.4238C140.149 22.6823 140.132 21.9773 140.099 21.3086C144.746 19.0782 149.473 16.9881 154.274 15.042ZM232.217 0C236.185 0 239.684 0.939145 242.713 2.81641C245.785 4.651 248.174 7.33876 249.881 10.8799C251.63 14.3785 252.505 18.56 252.505 23.4238C252.505 28.2878 251.63 32.4909 249.881 36.0322C248.174 39.5308 245.785 42.2194 242.713 44.0967C239.684 45.9312 236.185 46.8486 232.217 46.8486C228.249 46.8486 224.729 45.9312 221.657 44.0967C218.628 42.2193 216.239 39.5309 214.489 36.0322C212.783 32.4909 211.93 28.2878 211.93 23.4238C211.93 18.56 212.783 14.3785 214.489 10.8799C216.239 7.33872 218.628 4.65103 221.657 2.81641C224.729 0.939145 228.249 7.03849e-05 232.217 0ZM276.529 0C280.497 0 283.996 0.939145 287.025 2.81641C290.097 4.651 292.487 7.33876 294.193 10.8799C295.943 14.3785 296.817 18.56 296.817 23.4238C296.817 28.2878 295.943 32.4909 294.193 36.0322C292.487 39.5308 290.097 42.2194 287.025 44.0967C283.996 45.9312 280.497 46.8486 276.529 46.8486C272.562 46.8486 269.042 45.9312 265.97 44.0967C262.94 42.2193 260.551 39.5309 258.802 36.0322C257.095 32.4909 256.242 28.2878 256.242 23.4238C256.242 18.56 257.095 14.3785 258.802 10.8799C260.551 7.33872 262.941 4.65103 265.97 2.81641C269.042 0.939145 272.561 7.03849e-05 276.529 0ZM329.504 10.3643C334.038 11.9241 338.513 13.6108 342.925 15.4199C342.208 17.2948 341.848 19.9623 341.848 23.4238C341.848 30.9755 343.554 34.7516 346.967 34.752C350.38 34.752 352.087 30.9758 352.087 23.4238C352.087 21.8933 352.015 20.5182 351.875 19.2979C357.045 21.6591 362.122 24.1906 367.096 26.8867C366.772 30.3117 365.951 33.3603 364.631 36.0322C362.924 39.5308 360.535 42.2194 357.463 44.0967C354.434 45.9312 350.935 46.8486 346.967 46.8486C342.999 46.8486 339.479 45.9312 336.407 44.0967C333.378 42.2193 330.989 39.5309 329.239 36.0322C327.533 32.4909 326.68 28.2878 326.68 23.4238C326.68 18.56 327.533 14.3785 329.239 10.8799C329.325 10.7056 329.415 10.5344 329.504 10.3643ZM179.677 45.8242H164.573V12.416H161.036C167.141 10.1468 173.358 8.10869 179.677 6.31348V45.8242ZM206.427 45.8242H191.323V12.416H183.644V5.22266C189.761 3.59399 195.97 2.19131 202.262 1.02441H206.427V45.8242ZM298.394 1.87793C306.124 3.45558 313.724 5.38894 321.177 7.66211V45.8242H306.073V12.416H298.394V1.87793ZM376.511 32.2568C381.669 35.3496 386.706 38.6229 391.614 42.0684V45.8242H376.511V32.2568ZM232.217 12.0967C228.804 12.097 227.098 15.8724 227.098 23.4238C227.098 30.9755 228.804 34.7516 232.217 34.752C235.63 34.752 237.337 30.9758 237.337 23.4238C237.337 15.8721 235.63 12.0967 232.217 12.0967ZM276.529 12.0967C273.116 12.097 271.41 15.8724 271.41 23.4238C271.41 30.9755 273.116 34.7516 276.529 34.752C279.943 34.752 281.649 30.9758 281.649 23.4238C281.649 15.8721 279.943 12.0967 276.529 12.0967Z" fill="black"/>
<path d="M176.65 205.824C184.41 205.824 191.17 207.104 196.93 209.664C202.69 212.224 207.13 215.904 210.25 220.704C213.37 225.504 214.93 231.104 214.93 237.504C214.93 243.904 213.37 249.504 210.25 254.304C207.13 259.104 202.69 262.784 196.93 265.344C191.17 267.904 184.41 269.184 176.65 269.184H164.53V289.824H136.21V205.824H176.65ZM174.85 247.344C178.69 247.344 181.57 246.504 183.49 244.824C185.41 243.064 186.37 240.624 186.37 237.504C186.37 234.384 185.41 231.984 183.49 230.304C181.57 228.544 178.69 227.664 174.85 227.664H164.53V247.344H174.85ZM264.312 203.904C272.472 203.904 279.672 205.544 285.912 208.824C292.152 212.024 296.992 216.744 300.432 222.984C303.952 229.144 305.712 236.504 305.712 245.064V289.824H277.392V272.904H250.752V289.824H222.912V245.064C222.912 236.504 224.632 229.144 228.072 222.984C231.592 216.744 236.472 212.024 242.712 208.824C248.952 205.544 256.152 203.904 264.312 203.904ZM277.392 251.544V242.664C277.392 237.464 276.152 233.544 273.672 230.904C271.272 228.184 268.072 226.824 264.072 226.824C260.072 226.824 256.832 228.184 254.352 230.904C251.952 233.544 250.752 237.464 250.752 242.664V251.544H277.392ZM385.539 235.224C379.059 231.624 372.499 229.144 365.859 227.784V289.824H337.539V227.784C330.899 229.144 324.339 231.624 317.859 235.224L308.499 215.064C314.499 211.464 321.219 208.704 328.659 206.784C336.099 204.864 343.779 203.904 351.699 203.904C359.619 203.904 367.299 204.864 374.739 206.784C382.179 208.704 388.899 211.464 394.899 215.064L385.539 235.224ZM482.33 205.824V289.824H454.01V258.864H427.85V289.824H399.53V205.824H427.85V235.584H454.01V205.824H482.33Z" fill="black"/>
</svg>
